<svg width="144" height="186" viewBox="0 0 144 186" fill="none" xmlns="http://www.w3.org/2000/svg">
<g clip-path="url(#clip0)">
<path d="M144 0C136.753 32.6371 115.326 48.7973 80.035 48.7973H38.7571L36.2363 69.7104C47.8949 65.2743 60.1838 63.3731 72.4726 63.3731C92.954 63.3731 109.024 68.7598 121.628 79.8501C133.917 90.6235 140.219 105.516 140.219 123.894C140.219 143.54 132.656 158.75 117.217 169.84C101.777 180.93 81.2954 186.317 55.4573 186.317C37.8118 186.317 24.2626 183.148 14.4945 176.811C4.72646 170.474 -0.315112 161.601 -0.315112 150.194C-0.315112 142.589 2.20568 136.252 6.93215 131.499C11.9737 126.112 18.2757 123.578 25.523 123.578C32.7702 123.578 38.7571 126.112 43.1685 130.549C47.5799 135.302 49.7855 141.322 49.7855 148.927C49.7855 163.503 41.593 171.424 24.8928 172.058V173.008C31.5098 176.494 39.0722 178.395 47.8949 178.395C54.1969 178.395 59.5536 177.445 63.3348 175.543C67.116 173.642 69.9518 171.424 71.2122 168.572C72.4726 166.037 73.1028 161.918 73.1028 156.532V88.7223C73.1028 76.9983 68.0612 71.2947 57.9781 71.2947C50.4157 71.2947 40.3326 74.7802 28.3588 81.7513L36.5514 1.90119C51.361 4.43612 68.3763 5.38671 87.5973 5.38671C109.969 5.38671 128.875 3.48552 144 0Z" fill="#D8B674"/>
</g>
<defs>
<clipPath id="clip0">
<rect width="144" height="186" fill="white"/>
</clipPath>
</defs>
</svg>
