<svg width="162" height="186" viewBox="0 0 162 186" fill="none" xmlns="http://www.w3.org/2000/svg">
<path d="M94.6337 166.253V97.1404C94.6337 86.3116 91.1049 80.8973 83.7267 80.8973C80.8396 80.8973 76.0277 82.4897 69.6119 85.6747V165.616C69.6119 173.897 73.7822 178.356 82.1228 178.356C85.9723 178.356 88.8594 177.082 91.1049 175.171C93.6713 172.942 94.6337 169.757 94.6337 166.253ZM69.6119 79.6233C81.802 73.2534 93.9921 69.75 106.182 69.75C121.901 69.75 135.374 74.8459 145.96 85.3562C156.547 95.8664 162 108.606 162 123.894C162 142.048 154.622 157.017 140.186 168.483C125.43 179.949 106.824 186 83.7267 186C59.3465 186 39.4574 177.719 23.7386 160.839C8.0198 143.959 0 122.301 0 96.1849C0 68.1575 8.98218 45.226 26.6257 27.0719C44.2693 8.91781 66.7247 0 93.9921 0C109.711 0 121.901 2.86644 130.562 8.91781C139.224 14.9692 143.715 22.9315 143.715 33.4418C143.715 40.7671 141.469 46.5 136.978 50.9589C132.487 55.0993 126.392 57.3288 118.693 57.3288C110.673 57.3288 104.257 54.7808 99.4455 50.3219C94.6337 45.5445 92.0673 39.4931 92.0673 31.5308C92.0673 20.7021 97.2 13.3767 107.786 8.91781C103.616 7.64384 99.4455 6.68836 95.2753 6.68836C88.5386 6.68836 83.0852 7.96233 78.9149 10.5103C74.4238 13.0582 71.8574 15.9247 70.5743 19.7466C69.6119 23.25 68.9703 28.0274 68.9703 34.0788V79.6233H69.6119Z" fill="#D8B674"/>
</svg>
