<svg width="163" height="186" viewBox="0 0 163 186" fill="none" xmlns="http://www.w3.org/2000/svg">
<g clip-path="url(#clip0)">
<path d="M92.7569 166.121V97.1311C92.7569 91.6845 91.8564 88.0534 90.0552 85.3301C88.2541 82.6068 85.5525 81.699 81.0497 81.699C76.547 81.699 73.8453 82.6068 72.0442 84.4223C71.1436 87.1456 70.2431 90.7767 70.2431 96.2233V164.306C70.2431 169.752 71.1436 174.291 72.9448 176.107C74.7459 177.922 77.4475 179.738 81.9503 179.738C85.5525 179.738 89.1547 178.83 90.0552 177.015C91.8564 174.291 92.7569 170.66 92.7569 166.121ZM92.7569 61.7282V19.9709C92.7569 15.432 91.8564 11.801 90.0552 9.98544C89.1547 8.1699 85.5525 7.26214 81.9503 7.26214C77.4475 7.26214 74.7459 8.1699 72.9448 10.8932C71.1436 12.7087 70.2431 16.3398 70.2431 22.6942V62.6359C70.2431 71.7136 73.8453 76.2524 81.0497 76.2524C85.5525 76.2524 88.2541 75.3447 90.0552 73.5291C91.8564 70.8058 92.7569 67.1748 92.7569 61.7282ZM112.569 79.8835C146.79 83.5146 163.901 99.8544 163.901 127.087C163.901 146.15 155.796 160.675 138.685 171.568C122.475 181.553 102.663 187 79.2486 187C64.8398 187 51.3315 185.184 37.8232 180.646C24.3149 176.107 14.4088 169.752 9.00552 160.675C3.60221 151.597 0 142.519 0 131.626C0 104.393 16.2099 87.1456 48.6298 80.7913V79.8835C22.5138 73.5291 9.90608 60.8204 9.90608 42.665C9.90608 29.9563 15.3094 19.9709 26.116 11.801C36.9227 3.63107 54.9337 0 79.2486 0C127.878 0 152.193 13.6165 152.193 41.7573C152.193 60.8204 138.685 73.5291 112.569 79.8835Z" fill="#D8B674"/>
</g>
<defs>
<clipPath id="clip0">
<rect width="163" height="187" fill="white"/>
</clipPath>
</defs>
</svg>
