<svg width="158" height="186" viewBox="0 0 158 186" fill="none" xmlns="http://www.w3.org/2000/svg">
<path d="M91.5682 100.762V24.5097C91.5682 12.7087 87.9773 6.35437 79.8977 6.35437C77.2045 6.35437 74.5114 7.26214 71.8182 9.98544C68.2273 12.7087 67.3295 18.1553 67.3295 26.3252V88.9612C67.3295 100.762 70.0227 107.117 76.3068 107.117C81.6932 107.117 86.1818 104.393 91.5682 100.762ZM91.5682 108.024C86.1818 110.748 81.6932 112.563 78.1023 113.471C74.5114 114.379 69.125 115.286 61.9432 115.286C43.9886 115.286 28.7273 109.84 17.0568 99.8544C5.38636 89.8689 0 77.1602 0 61.7282C0 43.5728 7.18182 29.0485 20.6477 17.2476C35.0114 5.4466 52.9659 0 75.4091 0C96.0568 0 112.216 5.4466 124.784 15.432C136.455 25.4175 145.432 37.2184 150.818 49.9272C156.205 62.6359 158 76.2524 158 89.8689C158 109.84 153.511 127.087 144.534 141.612C135.557 156.136 122.989 167.029 106.83 175.199C90.6705 182.461 74.5114 187 57.4545 187C40.3977 187 26.9318 183.369 17.0568 177.922C7.18182 171.568 1.79545 163.398 1.79545 152.505C1.79545 145.243 4.48864 138.888 8.97727 134.35C14.3636 128.903 20.6477 127.087 27.8295 127.087C35.0114 127.087 40.3977 129.811 44.8864 134.35C49.375 138.888 52.0682 145.243 52.0682 152.505C52.0682 163.398 46.6818 170.66 36.8068 175.199C42.1932 177.922 49.375 179.738 58.3523 179.738C65.5341 179.738 71.8182 178.83 77.2046 176.107C82.5909 173.383 86.1818 170.66 87.9773 167.029C89.7727 163.398 90.6705 158.859 90.6705 152.505V108.024H91.5682Z" fill="#D8B674"/>
</svg>
