<svg width="263" height="186" viewBox="0 0 263 186" fill="none" xmlns="http://www.w3.org/2000/svg">
<path d="M106 186H0V179.519H21.9756V20.7387H0V14.5819H18.4207C27.1463 14.5819 37.1646 13.9338 48.4756 12.3136C59.7866 11.0174 71.7439 6.80488 84.6707 0V179.519H106V186Z" fill="#D8B674"/>
<g clip-path="url(#clip0)">
<path d="M194.642 162.65V24.3495C194.642 18.0631 193.743 13.5728 191.944 11.7767C190.145 9.08253 186.547 8.18447 182.95 8.18447C178.453 8.18447 174.855 9.08252 173.056 12.6748C171.257 14.4709 170.358 18.9612 170.358 25.2476V162.65C170.358 168.937 171.257 173.427 173.056 176.121C174.855 178.816 177.553 179.714 182.05 179.714C187.447 179.714 191.045 178.816 192.844 176.121C193.743 173.427 194.642 168.937 194.642 162.65ZM182.05 1C204.536 1 223.425 9.98058 238.715 27.9417C254.006 45.9029 262.101 67.4563 262.101 93.5C262.101 121.34 254.905 143.791 239.615 160.854C224.324 177.917 205.436 186.898 181.151 186.898C158.665 186.898 139.777 177.917 124.486 160.854C109.196 141.995 102 120.442 102 94.3981C102 68.3544 110.095 45.9029 125.385 27.9417C140.676 9.98058 159.564 1 182.05 1Z" fill="#D8B674"/>
</g>
<defs>
<clipPath id="clip0">
<rect width="161" height="185" fill="white" transform="translate(102 1)"/>
</clipPath>
</defs>
</svg>
