<svg width="153" height="186" viewBox="0 0 153 186" fill="none" xmlns="http://www.w3.org/2000/svg">
<g clip-path="url(#clip0)">
<path d="M156 119.458C151.557 130.549 145.21 142.273 137.275 154.63C129.024 167.305 121.09 174.91 112.521 178.395C104.269 181.881 96.9701 183.465 90.6228 183.465C87.4491 183.465 81.4192 182.831 72.5329 181.247C50.9521 177.762 36.0359 176.177 28.7365 176.177C18.5808 176.177 9.69461 179.346 2.39521 186L-3 182.831C-0.461078 171.741 4.61677 162.235 11.5988 153.68C18.5808 145.124 25.2455 138.787 31.5928 134.351C45.8743 124.211 55.0779 117.24 59.521 113.438C63.9641 109.635 68.0898 105.199 71.5808 99.8126C75.3892 94.4259 78.2455 88.0886 79.8323 80.8007C81.7365 73.5128 82.6886 64.3237 82.6886 52.9165C82.6886 41.5094 81.7365 32.954 79.515 27.2504C77.2934 21.5469 73.485 17.1107 67.7725 13.6252C62.3773 10.1397 56.0299 8.55537 49.3653 8.55537C44.2874 8.55537 38.8922 9.82283 32.8623 12.3578C26.8323 14.8927 22.0719 18.0613 18.2635 21.8637L18.8982 22.4974C22.0719 21.23 25.5629 20.9131 29.0539 20.9131C36.6707 20.9131 42.7006 23.1312 47.4611 27.8842C52.2216 32.6371 54.4431 38.6576 54.4431 46.2624C54.4431 54.184 51.9042 60.8382 46.8264 65.908C41.7485 71.2947 35.4012 73.8296 27.4671 73.8296C19.8503 73.8296 13.1856 70.9779 7.47305 65.5911C1.76048 60.2044 -1.09581 53.5503 -1.09581 46.2624C-1.09581 33.5877 5.2515 22.8143 17.9461 13.9421C30.3234 4.43612 46.8264 0 66.8204 0C92.2096 0 112.521 5.38671 127.437 16.1601C142.353 26.9336 149.653 41.5094 149.653 59.5707C149.653 72.2453 146.162 82.385 138.862 90.3066C131.563 98.2283 122.042 104.566 110.617 109.319C99.1916 114.072 87.7665 117.557 76.6587 120.092C68.7246 121.993 63.012 123.261 59.2036 124.528C55.3952 125.796 51.5868 127.697 47.7784 130.549L48.4132 131.182C53.1737 128.647 58.5689 127.38 65.2335 127.38C69.6767 127.38 77.9281 128.014 90.3054 129.281C103 130.232 111.569 130.865 116.012 130.865C126.168 130.865 133.467 130.232 137.91 128.647C142.353 127.38 146.796 123.261 150.605 115.973L156 119.458Z" fill="#D8B674"/>
</g>
<defs>
<clipPath id="clip0">
<rect width="153" height="186" fill="white"/>
</clipPath>
</defs>
</svg>
