<svg width="153" height="179" viewBox="0 0 153 179" fill="none" xmlns="http://www.w3.org/2000/svg">
<g clip-path="url(#clip0)">
<path d="M153 115.159C148.725 125.85 142.617 137.152 134.982 149.065C127.042 161.283 119.407 168.614 111.162 171.974C103.222 175.334 96.1976 176.862 90.0898 176.862C87.0359 176.862 81.2335 176.251 72.6826 174.724C51.9162 171.363 37.5629 169.836 30.5389 169.836C20.7665 169.836 12.2156 172.891 5.19162 179.305L0 176.251C2.44311 165.56 7.32934 156.396 14.0479 148.148C20.7665 139.901 27.1796 133.792 33.2874 129.515C47.0299 119.741 55.8862 113.02 60.1617 109.355C64.4371 105.689 68.4072 101.413 71.7665 96.2201C75.4311 91.0273 78.1796 84.9181 79.7066 77.8925C81.5389 70.8669 82.4551 62.0085 82.4551 51.012C82.4551 40.0154 81.5389 31.7679 79.4012 26.2696C77.2635 20.7713 73.5988 16.4949 68.1018 13.1348C62.9102 9.77474 56.8024 8.24744 50.3892 8.24744C45.503 8.24744 40.3114 9.46928 34.509 11.913C28.7066 14.3567 24.1257 17.4113 20.4611 21.0768L21.0719 21.6877C24.1257 20.4659 27.485 20.1604 30.8443 20.1604C38.1737 20.1604 43.976 22.2986 48.5569 26.8805C53.1377 31.4625 55.2755 37.2662 55.2755 44.5973C55.2755 52.2338 52.8323 58.6485 47.9461 63.5358C43.0599 68.7287 36.9521 71.1724 29.3174 71.1724C21.988 71.1724 15.5749 68.4232 10.0778 63.2304C4.58084 58.0375 1.83234 51.6229 1.83234 44.5973C1.83234 32.3788 7.94012 21.9932 20.1557 13.4403C32.0659 4.27645 47.9461 0 67.1856 0C91.6168 0 111.162 5.19283 125.515 15.5785C139.868 25.9642 146.892 40.0154 146.892 57.4266C146.892 69.6451 143.533 79.4198 136.509 87.0563C129.485 94.6928 120.323 100.802 109.329 105.384C98.3353 109.966 87.3413 113.326 76.6527 115.77C69.018 117.602 63.521 118.824 59.8563 120.046C56.1916 121.268 52.527 123.101 48.8623 125.85L49.4731 126.461C54.0539 124.017 59.2455 122.795 65.6587 122.795C69.9341 122.795 77.8743 123.406 89.7844 124.628C102 125.544 110.246 126.155 114.521 126.155C124.293 126.155 131.317 125.544 135.593 124.017C139.868 122.795 144.144 118.824 147.808 111.799L153 115.159Z" fill="#D8B674"/>
</g>
<defs>
<clipPath id="clip0">
<rect width="153" height="179" fill="white"/>
</clipPath>
</defs>
</svg>
