<svg width="147" height="186" viewBox="0 0 147 186" fill="none" xmlns="http://www.w3.org/2000/svg">
<g clip-path="url(#clip0)">
<path d="M99.4881 82.8082C116.707 86.9486 129.143 93.637 136.158 102.555C143.492 111.473 147 121.664 147 132.493C147 142.685 143.492 152.558 136.477 162.113C129.462 171.349 119.258 177.719 105.547 181.223C92.154 184.408 78.7614 186.318 65.3688 186.318C42.7289 186.318 26.4664 182.178 15.9436 173.897C5.10195 165.298 0 156.062 0 145.551C0 137.589 2.55098 130.901 7.9718 125.805C13.0738 120.39 19.4512 117.842 27.423 117.842C34.7571 117.842 40.8156 120.39 45.5987 125.168C50.3818 129.945 52.9328 135.997 52.9328 143.64C52.9328 150.647 50.7007 156.38 46.5553 161.158C42.41 165.616 36.6703 167.846 29.974 167.846C24.872 167.846 19.7701 165.935 14.6681 162.113L14.0304 162.432C22.9588 172.942 36.6703 178.356 55.1649 178.356C60.9046 178.356 65.3688 177.401 68.5575 175.49C71.7462 173.579 73.9783 171.349 74.9349 168.801C76.2104 166.253 76.5293 161.795 76.5293 155.743V100.644C76.5293 94.911 75.5727 91.089 73.6594 88.8596C71.7462 86.9486 67.6009 85.9931 61.5423 85.9931H47.8308V78.6678H64.731C69.1952 78.6678 72.3839 77.7123 74.2972 75.4829C76.2104 73.5719 76.8482 70.0685 76.8482 64.9726V27.7089C76.8482 19.7466 75.2538 14.3322 72.3839 11.4658C69.5141 8.59931 64.0933 7.00685 56.1215 7.00685C47.1931 7.00685 39.2213 8.59931 31.8872 11.4658V12.1027H33.4816C40.4967 12.1027 46.5553 14.3322 50.7006 18.7911C55.1649 22.9315 57.397 28.6644 57.397 35.6712C57.397 42.6781 54.846 48.411 50.0629 53.1884C45.2798 57.6473 38.9024 60.1952 31.5683 60.1952C24.5531 60.1952 18.4946 57.9658 14.0304 53.5068C9.24729 49.0479 7.01518 42.9966 7.01518 35.9897C7.01518 24.524 12.436 15.6062 23.5965 9.55479C34.757 3.18493 50.7006 0 71.1085 0C93.1106 0 110.011 3.82192 122.128 11.7842C134.245 19.4281 140.304 30.2568 140.304 44.2705C140.304 53.8253 137.434 62.1062 132.013 68.476C126.273 75.1644 115.432 79.6233 99.4881 81.8527V82.8082Z" fill="#D8B674"/>
</g>
<defs>
<clipPath id="clip0">
<rect width="147" height="186" fill="white"/>
</clipPath>
</defs>
</svg>
