<svg width="159" height="186" viewBox="0 0 159 186" fill="none" xmlns="http://www.w3.org/2000/svg">
<path d="M159 5.38835C148.034 14.5146 137.069 30.0291 128.845 51.0194C119.707 72.0097 115.138 97.5631 115.138 125.854V129.505C115.138 141.369 114.224 150.495 112.397 158.709C110.569 166.922 106.914 173.311 100.517 178.786C94.1207 184.262 86.8103 186.087 76.7586 186.087C66.7069 186.087 58.4828 183.35 52.0862 176.961C45.6897 170.573 42.0345 162.359 42.0345 153.233C42.0345 141.369 45.6897 128.592 52.0862 116.728C58.4828 104.864 71.2759 89.3495 90.4655 72.0097C104.172 59.233 113.31 50.1068 117.879 45.5437C122.448 40.068 127.931 33.6796 133.414 25.466L132.5 24.5534C125.19 32.767 115.138 39.1553 102.345 42.8058C89.5517 46.4563 74.931 49.1942 59.3965 49.1942H32.8965C24.6724 49.1942 19.1897 50.1068 15.5345 53.7573C12.7931 56.4951 9.13793 61.0583 6.39655 67.4466H0C7.31034 47.3689 10.9655 29.1165 10.9655 9.95146C10.9655 5.38835 10.9655 1.73786 10.0517 -1H15.5345C15.5345 2.65049 16.4483 5.38835 16.4483 8.12621V9.95146C29.2414 2.65049 45.6897 -1 64.8793 -1C74.931 -1 86.8103 -0.0873787 101.431 2.65049C115.138 5.38835 125.19 6.30097 129.759 6.30097C141.638 6.30097 150.776 4.47573 156.259 0.825243L159 5.38835Z" fill="#D8B674"/>
</svg>
