<svg width="267" height="186" viewBox="0 0 267 186" fill="none" xmlns="http://www.w3.org/2000/svg">
<path d="M106 186H0V179.519H21.9756V20.7387H0V14.5819H18.4207C27.1463 14.5819 37.1646 13.9338 48.4756 12.3136C59.7866 11.0174 71.7439 6.80488 84.6707 0V179.519H106V186Z" fill="#D8B674"/>
<g clip-path="url(#clip0)">
<path d="M270 120.458C265.557 131.549 259.21 143.273 251.275 155.63C243.024 168.305 235.09 175.91 226.521 179.395C218.269 182.881 210.97 184.465 204.623 184.465C201.449 184.465 195.419 183.831 186.533 182.247C164.952 178.762 150.036 177.177 142.737 177.177C132.581 177.177 123.695 180.346 116.395 187L111 183.831C113.539 172.741 118.617 163.235 125.599 154.68C132.581 146.124 139.246 139.787 145.593 135.351C159.874 125.211 169.078 118.24 173.521 114.438C177.964 110.635 182.09 106.199 185.581 100.813C189.389 95.4259 192.246 89.0886 193.832 81.8007C195.737 74.5128 196.689 65.3237 196.689 53.9165C196.689 42.5094 195.737 33.954 193.515 28.2504C191.293 22.5469 187.485 18.1107 181.772 14.6252C176.377 11.1397 170.03 9.55537 163.365 9.55537C158.287 9.55537 152.892 10.8228 146.862 13.3578C140.832 15.8927 136.072 19.0613 132.263 22.8637L132.898 23.4974C136.072 22.23 139.563 21.9131 143.054 21.9131C150.671 21.9131 156.701 24.1312 161.461 28.8842C166.222 33.6371 168.443 39.6576 168.443 47.2624C168.443 55.184 165.904 61.8382 160.826 66.908C155.749 72.2947 149.401 74.8296 141.467 74.8296C133.85 74.8296 127.186 71.9779 121.473 66.5911C115.76 61.2044 112.904 54.5503 112.904 47.2624C112.904 34.5877 119.251 23.8143 131.946 14.9421C144.323 5.43612 160.826 1 180.82 1C206.21 1 226.521 6.38671 241.437 17.1601C256.353 27.9336 263.653 42.5094 263.653 60.5707C263.653 73.2453 260.162 83.385 252.862 91.3066C245.563 99.2283 236.042 105.566 224.617 110.319C213.192 115.072 201.766 118.557 190.659 121.092C182.725 122.993 177.012 124.261 173.204 125.528C169.395 126.796 165.587 128.697 161.778 131.549L162.413 132.182C167.174 129.647 172.569 128.38 179.234 128.38C183.677 128.38 191.928 129.014 204.305 130.281C217 131.232 225.569 131.865 230.012 131.865C240.168 131.865 247.467 131.232 251.91 129.647C256.353 128.38 260.796 124.261 264.605 116.973L270 120.458Z" fill="#D8B674"/>
</g>
<defs>
<clipPath id="clip0">
<rect width="153" height="186" fill="white" transform="translate(114 1)"/>
</clipPath>
</defs>
</svg>
